<?xml version="1.0" encoding="UTF-8"?>
<svg id="Layer_2" data-name="Layer 2" xmlns="http://www.w3.org/2000/svg" viewBox="0 0 97.5 97.5">
  <defs>
    <style>
      .cls-1 {
        fill: #1e2207;
      }
    </style>
  </defs>
  <g id="Site_Icons" data-name="Site Icons">
    <g>
      <path class="cls-1" d="M48.75,74.08c-13.97,0-25.33-11.36-25.33-25.33s11.36-25.33,25.33-25.33,25.33,11.36,25.33,25.33-11.36,25.33-25.33,25.33ZM48.75,27.42c-11.76,0-21.33,9.57-21.33,21.33s9.57,21.33,21.33,21.33,21.33-9.57,21.33-21.33-9.57-21.33-21.33-21.33Z"/>
      <path class="cls-1" d="M48.75,21.98c-4.27,0-7.75-3.48-7.75-7.75v-6.47c0-4.27,3.48-7.75,7.75-7.75s7.75,3.48,7.75,7.75v6.47c0,4.27-3.48,7.75-7.75,7.75ZM48.75,4c-2.07,0-3.75,1.68-3.75,3.75v6.47c0,2.07,1.68,3.75,3.75,3.75s3.75-1.68,3.75-3.75v-6.47c0-2.07-1.68-3.75-3.75-3.75Z"/>
      <path class="cls-1" d="M48.75,97.5c-4.27,0-7.75-3.48-7.75-7.75v-6.47c0-4.27,3.48-7.75,7.75-7.75s7.75,3.48,7.75,7.75v6.47c0,4.27-3.48,7.75-7.75,7.75ZM48.75,79.52c-2.07,0-3.75,1.68-3.75,3.75v6.47c0,2.07,1.68,3.75,3.75,3.75s3.75-1.68,3.75-3.75v-6.47c0-2.07-1.68-3.75-3.75-3.75Z"/>
      <path class="cls-1" d="M89.75,56.5h-6.47c-4.27,0-7.75-3.48-7.75-7.75s3.48-7.75,7.75-7.75h6.47c4.27,0,7.75,3.48,7.75,7.75s-3.48,7.75-7.75,7.75ZM83.28,45c-2.07,0-3.75,1.68-3.75,3.75s1.68,3.75,3.75,3.75h6.47c2.07,0,3.75-1.68,3.75-3.75s-1.68-3.75-3.75-3.75h-6.47Z"/>
      <path class="cls-1" d="M14.22,56.5h-6.47c-4.27,0-7.75-3.48-7.75-7.75s3.48-7.75,7.75-7.75h6.47c4.27,0,7.75,3.48,7.75,7.75s-3.48,7.75-7.75,7.75ZM7.75,45c-2.07,0-3.75,1.68-3.75,3.75s1.68,3.75,3.75,3.75h6.47c2.07,0,3.75-1.68,3.75-3.75s-1.68-3.75-3.75-3.75h-6.47Z"/>
      <path class="cls-1" d="M73.16,32.08c-2.07,0-4.02-.8-5.48-2.27h0c-3.02-3.02-3.02-7.94,0-10.96l4.58-4.58c1.46-1.46,3.41-2.27,5.48-2.27s4.02.81,5.48,2.27c1.46,1.46,2.27,3.41,2.27,5.48s-.81,4.02-2.27,5.48l-4.58,4.58c-1.46,1.46-3.41,2.27-5.48,2.27ZM70.51,26.99c1.41,1.41,3.89,1.41,5.31,0l4.58-4.58c.71-.71,1.1-1.65,1.1-2.65s-.39-1.94-1.1-2.65c-1.42-1.42-3.89-1.42-5.31,0l-4.58,4.58c-1.46,1.46-1.46,3.84,0,5.31h0Z"/>
      <path class="cls-1" d="M19.76,85.49c-2.07,0-4.02-.81-5.48-2.27-1.46-1.46-2.27-3.41-2.27-5.48s.81-4.02,2.27-5.48l4.58-4.58c3.02-3.02,7.94-3.02,10.96,0,1.46,1.46,2.27,3.41,2.27,5.48s-.81,4.02-2.27,5.48l-4.58,4.58c-1.46,1.46-3.41,2.27-5.48,2.27ZM21.68,70.51l-4.58,4.58c-.71.71-1.1,1.65-1.1,2.65s.39,1.94,1.1,2.65c1.42,1.42,3.89,1.42,5.31,0l4.58-4.58c.71-.71,1.1-1.65,1.1-2.65s-.39-1.95-1.1-2.65c-1.46-1.46-3.84-1.46-5.31,0Z"/>
      <path class="cls-1" d="M77.74,85.49c-2.07,0-4.02-.81-5.48-2.27l-4.58-4.58c-3.02-3.02-3.02-7.94,0-10.96,3.02-3.02,7.94-3.02,10.96,0l4.58,4.58c1.46,1.46,2.27,3.41,2.27,5.48s-.81,4.02-2.27,5.48c-1.46,1.46-3.41,2.27-5.48,2.27ZM73.16,69.41c-.96,0-1.92.37-2.65,1.1-1.46,1.46-1.46,3.84,0,5.31l4.58,4.58c1.42,1.42,3.89,1.42,5.31,0,.71-.71,1.1-1.65,1.1-2.65s-.39-1.94-1.1-2.65l-4.58-4.58c-.73-.73-1.69-1.1-2.65-1.1Z"/>
      <path class="cls-1" d="M24.34,32.09c-2.07,0-4.02-.81-5.48-2.27h0s-4.58-4.58-4.58-4.58c-1.46-1.46-2.27-3.41-2.27-5.48s.81-4.02,2.27-5.48c1.46-1.46,3.41-2.27,5.48-2.27s4.02.81,5.48,2.27l4.58,4.58c1.46,1.46,2.27,3.41,2.27,5.48s-.81,4.02-2.27,5.48c-1.46,1.46-3.41,2.27-5.48,2.27ZM21.68,26.99c1.41,1.41,3.89,1.41,5.31,0,.71-.71,1.1-1.65,1.1-2.65s-.39-1.94-1.1-2.65l-4.58-4.58c-1.42-1.42-3.89-1.42-5.31,0-.71.71-1.1,1.65-1.1,2.65s.39,1.94,1.1,2.65l4.58,4.58Z"/>
    </g>
  </g>
</svg>