<?xml version="1.0" encoding="UTF-8"?>
<svg id="Layer_2" data-name="Layer 2" xmlns="http://www.w3.org/2000/svg" xmlns:xlink="http://www.w3.org/1999/xlink" viewBox="0 0 91.59 78.38">
  <defs>
    <style>
      .cls-1 {
        fill: #425e2e;
      }

      .cls-2 {
        clip-path: url(#clippath);
      }
    </style>
    <clipPath id="clippath">
      <path class="cls-1" d="M44.52,0L0,28.48v49.91h91.59V28.48L44.52,0ZM12.83,65.55v-30.04l31.87-20.39,34.05,20.6v29.83h-11.64c-5.35-3.08-11.95-5.02-19.16-5.32l-1.6-10.95c2.35-.35,8.08-1.52,12.23-5.15,5.34-4.67,6.04-11.64,6.04-11.64,0,0-7.96.61-13.3,5.28-3.1,2.71-4.64,6.2-5.38,8.65-.06.18-.11.36-.15.53-.05-.17-.1-.35-.15-.53-.74-2.45-2.28-5.93-5.38-8.65-5.34-4.67-13.3-5.28-13.3-5.28,0,0,.7,6.97,6.04,11.64,4.15,3.63,9.88,4.81,12.23,5.15l-1.6,10.97c-7.06.35-13.54,2.28-18.8,5.3h-11.99Z"/>
    </clipPath>
  </defs>
  <g id="Layer_11" data-name="Layer 11">
    <g id="WebClip">
      <path class="cls-1" d="M44.52,0L0,28.48v49.91h91.59V28.48L44.52,0ZM12.83,65.55v-30.04l31.87-20.39,34.05,20.6v29.83h-11.64c-5.35-3.08-11.95-5.02-19.16-5.32l-1.6-10.95c2.35-.35,8.08-1.52,12.23-5.15,5.34-4.67,6.04-11.64,6.04-11.64,0,0-7.96.61-13.3,5.28-3.1,2.71-4.64,6.2-5.38,8.65-.06.18-.11.36-.15.53-.05-.17-.1-.35-.15-.53-.74-2.45-2.28-5.93-5.38-8.65-5.34-4.67-13.3-5.28-13.3-5.28,0,0,.7,6.97,6.04,11.64,4.15,3.63,9.88,4.81,12.23,5.15l-1.6,10.97c-7.06.35-13.54,2.28-18.8,5.3h-11.99Z"/>
      <g class="cls-2">
        <rect class="cls-1" x="22.45" y="31.22" width="45.95" height="34.33"/>
      </g>
    </g>
  </g>
</svg>